<?xml version="1.0" encoding="UTF-8" standalone="no"?>
<!DOCTYPE svg PUBLIC "-//W3C//DTD SVG 1.1//EN"
 "http://www.w3.org/Graphics/SVG/1.1/DTD/svg11.dtd">
<!-- Generated by graphviz version 5.0.0 (20220707.1540)
 -->
<!-- Title: UmlClassDiagram Pages: 1 -->
<svg width="2338pt" height="2170pt"
 viewBox="0.00 0.00 2338.03 2170.00" xmlns="http://www.w3.org/2000/svg" xmlns:xlink="http://www.w3.org/1999/xlink">
<g id="graph0" class="graph" transform="scale(1 1) rotate(0) translate(4 2166)">
<title>UmlClassDiagram</title>
<polygon fill="white" stroke="transparent" points="-4,4 -4,-2166 2334.03,-2166 2334.03,4 -4,4"/>
<!-- 0 -->
<g id="node1" class="node">
<title>0</title>
<polygon fill="#f2f2f2" stroke="black" points="1356.32,-0.5 1356.32,-293.3 1700.17,-293.3 1700.17,-0.5 1356.32,-0.5"/>
<text text-anchor="middle" x="1528.24" y="-276.7" font-family="Times,serif" font-size="14.00">FanficToken</text>
<text text-anchor="middle" x="1528.24" y="-259.9" font-family="Times,serif" font-size="14.00">contracts/FanficToken.sol</text>
<polyline fill="none" stroke="black" points="1356.32,-251.7 1700.17,-251.7 "/>
<text text-anchor="start" x="1364.32" y="-235.1" font-family="Times,serif" font-size="14.00">Private:</text>
<text text-anchor="start" x="1364.32" y="-218.3" font-family="Times,serif" font-size="14.00"> &#160;&#160;_tokenIds: Counters.Counter</text>
<text text-anchor="start" x="1364.32" y="-201.5" font-family="Times,serif" font-size="14.00"> &#160;&#160;_protocol: address</text>
<text text-anchor="start" x="1364.32" y="-184.7" font-family="Times,serif" font-size="14.00"> &#160;&#160;_originToken: address</text>
<text text-anchor="start" x="1364.32" y="-167.9" font-family="Times,serif" font-size="14.00"> &#160;&#160;_originIds: mapping(uint256=&gt;uint256[])</text>
<polyline fill="none" stroke="black" points="1356.32,-159.7 1700.17,-159.7 "/>
<text text-anchor="start" x="1364.32" y="-143.1" font-family="Times,serif" font-size="14.00">External:</text>
<text text-anchor="start" x="1364.32" y="-126.3" font-family="Times,serif" font-size="14.00"> &#160;&#160;&#160;mint(tokenURI: string, originIds: uint256[]): uint256</text>
<text text-anchor="start" x="1364.32" y="-109.5" font-family="Times,serif" font-size="14.00"> &#160;&#160;&#160;origins(tokenId: uint256): uint256[]</text>
<text text-anchor="start" x="1364.32" y="-92.7" font-family="Times,serif" font-size="14.00"> &#160;&#160;&#160;totalSupply(): uint256</text>
<text text-anchor="start" x="1364.32" y="-75.9" font-family="Times,serif" font-size="14.00"> &#160;&#160;&#160;setOriginToken(originToken: address) &lt;&lt;onlyOwner&gt;&gt;</text>
<text text-anchor="start" x="1364.32" y="-59.1" font-family="Times,serif" font-size="14.00"> &#160;&#160;&#160;setProtocol(protocol: address) &lt;&lt;onlyOwner&gt;&gt;</text>
<text text-anchor="start" x="1364.32" y="-42.3" font-family="Times,serif" font-size="14.00">Public:</text>
<text text-anchor="start" x="1364.32" y="-25.5" font-family="Times,serif" font-size="14.00"> &#160;&#160;&#160;constructor(owner: address)</text>
<text text-anchor="start" x="1364.32" y="-8.7" font-family="Times,serif" font-size="14.00"> &#160;&#160;&#160;supportsInterface(interfaceId: bytes4): bool</text>
</g>
<!-- 3 -->
<g id="node4" class="node">
<title>3</title>
<polygon fill="#f2f2f2" stroke="black" points="413.04,-347.1 413.04,-555.9 709.45,-555.9 709.45,-347.1 413.04,-347.1"/>
<text text-anchor="middle" x="561.24" y="-539.3" font-family="Times,serif" font-size="14.00">OriginToken</text>
<text text-anchor="middle" x="561.24" y="-522.5" font-family="Times,serif" font-size="14.00">contracts/OriginToken.sol</text>
<polyline fill="none" stroke="black" points="413.04,-514.3 709.45,-514.3 "/>
<text text-anchor="start" x="421.04" y="-497.7" font-family="Times,serif" font-size="14.00">Private:</text>
<text text-anchor="start" x="421.04" y="-480.9" font-family="Times,serif" font-size="14.00"> &#160;&#160;_tokenIds: Counters.Counter</text>
<text text-anchor="start" x="421.04" y="-464.1" font-family="Times,serif" font-size="14.00"> &#160;&#160;_protocol: address</text>
<polyline fill="none" stroke="black" points="413.04,-455.9 709.45,-455.9 "/>
<text text-anchor="start" x="421.04" y="-439.3" font-family="Times,serif" font-size="14.00">External:</text>
<text text-anchor="start" x="421.04" y="-422.5" font-family="Times,serif" font-size="14.00"> &#160;&#160;&#160;mint(tokenURI: string): uint256</text>
<text text-anchor="start" x="421.04" y="-405.7" font-family="Times,serif" font-size="14.00"> &#160;&#160;&#160;totalSupply(): uint256</text>
<text text-anchor="start" x="421.04" y="-388.9" font-family="Times,serif" font-size="14.00"> &#160;&#160;&#160;setProtocol(protocol: address) &lt;&lt;onlyOwner&gt;&gt;</text>
<text text-anchor="start" x="421.04" y="-372.1" font-family="Times,serif" font-size="14.00">Public:</text>
<text text-anchor="start" x="421.04" y="-355.3" font-family="Times,serif" font-size="14.00"> &#160;&#160;&#160;constructor(owner: address)</text>
</g>
<!-- 0&#45;&gt;3 -->
<g id="edge5" class="edge">
<title>0&#45;&gt;3</title>
<path fill="none" stroke="black" stroke-dasharray="5,2" d="M1356.2,-201.74C1175.63,-258.24 894.15,-346.32 719.1,-401.1"/>
<polygon fill="black" stroke="black" points="718.04,-397.77 709.54,-404.09 720.13,-404.45 718.04,-397.77"/>
</g>
<!-- 4 -->
<g id="node5" class="node">
<title>4</title>
<polygon fill="#f2f2f2" stroke="black" points="691.56,-609.7 691.56,-1204.9 1306.93,-1204.9 1306.93,-609.7 691.56,-609.7"/>
<text text-anchor="middle" x="999.24" y="-1188.3" font-family="Times,serif" font-size="14.00">Protocol</text>
<text text-anchor="middle" x="999.24" y="-1171.5" font-family="Times,serif" font-size="14.00">contracts/Protocol.sol</text>
<polyline fill="none" stroke="black" points="691.56,-1163.3 1306.93,-1163.3 "/>
<text text-anchor="start" x="699.56" y="-1146.7" font-family="Times,serif" font-size="14.00">Private:</text>
<text text-anchor="start" x="699.56" y="-1129.9" font-family="Times,serif" font-size="14.00"> &#160;&#160;_apyNumerator: uint16</text>
<text text-anchor="start" x="699.56" y="-1113.1" font-family="Times,serif" font-size="14.00"> &#160;&#160;_apyDenominator: uint16</text>
<text text-anchor="start" x="699.56" y="-1096.3" font-family="Times,serif" font-size="14.00"> &#160;&#160;_mteToken: address</text>
<text text-anchor="start" x="699.56" y="-1079.5" font-family="Times,serif" font-size="14.00"> &#160;&#160;_stakingToken: address</text>
<text text-anchor="start" x="699.56" y="-1062.7" font-family="Times,serif" font-size="14.00"> &#160;&#160;_fanficToken: address</text>
<text text-anchor="start" x="699.56" y="-1045.9" font-family="Times,serif" font-size="14.00"> &#160;&#160;_market: address</text>
<text text-anchor="start" x="699.56" y="-1029.1" font-family="Times,serif" font-size="14.00"> &#160;&#160;_stakingId: Counters.Counter</text>
<text text-anchor="start" x="699.56" y="-1012.3" font-family="Times,serif" font-size="14.00"> &#160;&#160;_stakings: mapping(uint256=&gt;Staking)</text>
<polyline fill="none" stroke="black" points="691.56,-1004.1 1306.93,-1004.1 "/>
<text text-anchor="start" x="699.56" y="-987.5" font-family="Times,serif" font-size="14.00">Internal:</text>
<text text-anchor="start" x="699.56" y="-970.7" font-family="Times,serif" font-size="14.00"> &#160;&#160;&#160;_setApy(numerator: uint16)</text>
<text text-anchor="start" x="699.56" y="-953.9" font-family="Times,serif" font-size="14.00"> &#160;&#160;&#160;_stake(to: address, value: uint256)</text>
<text text-anchor="start" x="699.56" y="-937.1" font-family="Times,serif" font-size="14.00"> &#160;&#160;&#160;_setStaking(staker: address, amount: uint256, stakingTokenId: uint256)</text>
<text text-anchor="start" x="699.56" y="-920.3" font-family="Times,serif" font-size="14.00"> &#160;&#160;&#160;_setEndBlockNumber(staker: address)</text>
<text text-anchor="start" x="699.56" y="-903.5" font-family="Times,serif" font-size="14.00"> &#160;&#160;&#160;_calcReward(staker: address): uint256</text>
<text text-anchor="start" x="699.56" y="-886.7" font-family="Times,serif" font-size="14.00"> &#160;&#160;&#160;_currentStaking(staker: address): Staking</text>
<text text-anchor="start" x="699.56" y="-869.9" font-family="Times,serif" font-size="14.00">External:</text>
<text text-anchor="start" x="699.56" y="-853.1" font-family="Times,serif" font-size="14.00"> &#160;&#160;&#160;&lt;&lt;payable&gt;&gt; stakeSales(saleId: uint256)</text>
<text text-anchor="start" x="699.56" y="-836.3" font-family="Times,serif" font-size="14.00"> &#160;&#160;&#160;&lt;&lt;payable&gt;&gt; provideLiquidity(to: address, ethAmount: uint256, mteAmount: uint256) &lt;&lt;onlyOwner&gt;&gt;</text>
<text text-anchor="start" x="699.56" y="-819.5" font-family="Times,serif" font-size="14.00"> &#160;&#160;&#160;stake(amount: uint256)</text>
<text text-anchor="start" x="699.56" y="-802.7" font-family="Times,serif" font-size="14.00"> &#160;&#160;&#160;withdraw(amount: uint256)</text>
<text text-anchor="start" x="699.56" y="-785.9" font-family="Times,serif" font-size="14.00"> &#160;&#160;&#160;balanceOfStaking(account: address): uint256</text>
<text text-anchor="start" x="699.56" y="-769.1" font-family="Times,serif" font-size="14.00"> &#160;&#160;&#160;balanceOfReward(account: address): uint256</text>
<text text-anchor="start" x="699.56" y="-752.3" font-family="Times,serif" font-size="14.00"> &#160;&#160;&#160;totalStaking(): uint256</text>
<text text-anchor="start" x="699.56" y="-735.5" font-family="Times,serif" font-size="14.00"> &#160;&#160;&#160;mintable(account: address): bool</text>
<text text-anchor="start" x="699.56" y="-718.7" font-family="Times,serif" font-size="14.00"> &#160;&#160;&#160;setMteToken(mteToken: address) &lt;&lt;onlyOwner&gt;&gt;</text>
<text text-anchor="start" x="699.56" y="-701.9" font-family="Times,serif" font-size="14.00"> &#160;&#160;&#160;setStakingToken(stakingToken: address) &lt;&lt;onlyOwner&gt;&gt;</text>
<text text-anchor="start" x="699.56" y="-685.1" font-family="Times,serif" font-size="14.00"> &#160;&#160;&#160;setFanficToken(fanficToken: address) &lt;&lt;onlyOwner&gt;&gt;</text>
<text text-anchor="start" x="699.56" y="-668.3" font-family="Times,serif" font-size="14.00"> &#160;&#160;&#160;setMarket(market: address) &lt;&lt;onlyOwner&gt;&gt;</text>
<text text-anchor="start" x="699.56" y="-651.5" font-family="Times,serif" font-size="14.00">Public:</text>
<text text-anchor="start" x="699.56" y="-634.7" font-family="Times,serif" font-size="14.00"> &#160;&#160;&#160;constructor(owner: address, apy: uint16)</text>
<text text-anchor="start" x="699.56" y="-617.9" font-family="Times,serif" font-size="14.00"> &#160;&#160;&#160;rateOfLiquidity(): uint256</text>
</g>
<!-- 0&#45;&gt;4 -->
<g id="edge4" class="edge">
<title>0&#45;&gt;4</title>
<path fill="none" stroke="black" stroke-dasharray="5,2" d="M1356.28,-281.31C1340.61,-296.94 1325.62,-313.24 1312.24,-329.8 1245.94,-411.86 1185.69,-509.43 1136.13,-600.75"/>
<polygon fill="black" stroke="black" points="1133.04,-599.1 1131.37,-609.56 1139.2,-602.43 1133.04,-599.1"/>
</g>
<!-- 6 -->
<g id="node8" class="node">
<title>6</title>
<polygon fill="#f2f2f2" stroke="black" points="1749.01,-330.3 1749.01,-572.7 2205.48,-572.7 2205.48,-330.3 1749.01,-330.3"/>
<text text-anchor="middle" x="1977.24" y="-556.1" font-family="Times,serif" font-size="14.00">&lt;&lt;Abstract&gt;&gt;</text>
<text text-anchor="middle" x="1977.24" y="-539.3" font-family="Times,serif" font-size="14.00">ERC2981MultipleRoyalties</text>
<text text-anchor="middle" x="1977.24" y="-522.5" font-family="Times,serif" font-size="14.00">contracts/erc2981/ERC2981MultipleRoyalties.sol</text>
<polyline fill="none" stroke="black" points="1749.01,-514.3 2205.48,-514.3 "/>
<text text-anchor="start" x="1757.01" y="-497.7" font-family="Times,serif" font-size="14.00">Private:</text>
<text text-anchor="start" x="1757.01" y="-480.9" font-family="Times,serif" font-size="14.00"> &#160;&#160;_tokenRoyaltyInfo: mapping(uint256=&gt;RoyaltyInfo[])</text>
<polyline fill="none" stroke="black" points="1749.01,-472.7 2205.48,-472.7 "/>
<text text-anchor="start" x="1757.01" y="-456.1" font-family="Times,serif" font-size="14.00">Internal:</text>
<text text-anchor="start" x="1757.01" y="-439.3" font-family="Times,serif" font-size="14.00"> &#160;&#160;&#160;_addRoyaltyInfo(tokenId: uint256, receiver: address, feeNumerator: uint16)</text>
<text text-anchor="start" x="1757.01" y="-422.5" font-family="Times,serif" font-size="14.00"> &#160;&#160;&#160;_resetTokenRoyalty(tokenId: uint256)</text>
<text text-anchor="start" x="1757.01" y="-405.7" font-family="Times,serif" font-size="14.00"> &#160;&#160;&#160;_feeDenominator(): uint16</text>
<text text-anchor="start" x="1757.01" y="-388.9" font-family="Times,serif" font-size="14.00">External:</text>
<text text-anchor="start" x="1757.01" y="-372.1" font-family="Times,serif" font-size="14.00"> &#160;&#160;&#160;royaltyInfo(tokenId: uint256, salePrice: uint256): (address[], uint256[])</text>
<text text-anchor="start" x="1757.01" y="-355.3" font-family="Times,serif" font-size="14.00">Public:</text>
<text text-anchor="start" x="1757.01" y="-338.5" font-family="Times,serif" font-size="14.00"> &#160;&#160;&#160;supportsInterface(interfaceId: bytes4): bool</text>
</g>
<!-- 0&#45;&gt;6 -->
<g id="edge1" class="edge">
<title>0&#45;&gt;6</title>
<path fill="none" stroke="black" d="M1700.39,-264.86C1714.88,-274.66 1729.31,-284.41 1743.24,-293.8 1752.7,-300.17 1762.37,-306.68 1772.14,-313.25"/>
<polygon fill="none" stroke="black" points="1766.6,-322.18 1797.35,-330.2 1778.31,-304.75 1766.6,-322.18"/>
</g>
<!-- 8 -->
<g id="node9" class="node">
<title>8</title>
<polygon fill="#f2f2f2" stroke="black" points="1426.32,-832.1 1426.32,-982.5 2016.17,-982.5 2016.17,-832.1 1426.32,-832.1"/>
<text text-anchor="middle" x="1721.24" y="-965.9" font-family="Times,serif" font-size="14.00">&lt;&lt;Interface&gt;&gt;</text>
<text text-anchor="middle" x="1721.24" y="-949.1" font-family="Times,serif" font-size="14.00">IERC2981MultipleRoyalties</text>
<text text-anchor="middle" x="1721.24" y="-932.3" font-family="Times,serif" font-size="14.00">contracts/erc2981/IERC2981MultipleRoyalties.sol</text>
<polyline fill="none" stroke="black" points="1426.32,-924.1 2016.17,-924.1 "/>
<text text-anchor="start" x="1434.32" y="-907.5" font-family="Times,serif" font-size="14.00">External:</text>
<text text-anchor="start" x="1434.32" y="-890.7" font-family="Times,serif" font-size="14.00"> &#160;&#160;&#160;&#160;royaltyInfo(tokenId: uint256, salePrice: uint256): (receivers: address[], royaltyAmounts: uint256[])</text>
<text text-anchor="start" x="1434.32" y="-873.9" font-family="Times,serif" font-size="14.00">Public:</text>
<text text-anchor="start" x="1434.32" y="-857.1" font-family="Times,serif" font-size="14.00"> &#160;&#160;&#160;&lt;&lt;event&gt;&gt; AddRoyaltyInfo(tokenId: uint256, receiver: address, feeNumerator: uint16)</text>
<text text-anchor="start" x="1434.32" y="-840.3" font-family="Times,serif" font-size="14.00"> &#160;&#160;&#160;&lt;&lt;event&gt;&gt; ResetTokenRoyalty(tokenId: uint256)</text>
</g>
<!-- 0&#45;&gt;8 -->
<g id="edge3" class="edge">
<title>0&#45;&gt;8</title>
<path fill="none" stroke="black" stroke-dasharray="5,2" d="M1683.04,-293.5C1690.46,-305.18 1696.99,-317.31 1702.24,-329.8 1738.53,-416.09 1731.95,-683.79 1725.76,-821.93"/>
<polygon fill="black" stroke="black" points="1722.26,-821.9 1725.3,-832.05 1729.25,-822.22 1722.26,-821.9"/>
</g>
<!-- 9 -->
<g id="node11" class="node">
<title>9</title>
<polygon fill="#f2f2f2" stroke="black" points="1363.14,-367.9 1363.14,-535.1 1693.34,-535.1 1693.34,-367.9 1363.14,-367.9"/>
<text text-anchor="middle" x="1528.24" y="-518.5" font-family="Times,serif" font-size="14.00">&lt;&lt;Interface&gt;&gt;</text>
<text text-anchor="middle" x="1528.24" y="-501.7" font-family="Times,serif" font-size="14.00">IFanficToken</text>
<text text-anchor="middle" x="1528.24" y="-484.9" font-family="Times,serif" font-size="14.00">contracts/interfaces/IFanficToken.sol</text>
<polyline fill="none" stroke="black" points="1363.14,-476.7 1693.34,-476.7 "/>
<text text-anchor="start" x="1371.14" y="-460.1" font-family="Times,serif" font-size="14.00">External:</text>
<text text-anchor="start" x="1371.14" y="-443.3" font-family="Times,serif" font-size="14.00"> &#160;&#160;&#160;&#160;mint(tokenURI: string, originIds: uint256[]): uint256</text>
<text text-anchor="start" x="1371.14" y="-426.5" font-family="Times,serif" font-size="14.00"> &#160;&#160;&#160;&#160;totalSupply(): uint256</text>
<text text-anchor="start" x="1371.14" y="-409.7" font-family="Times,serif" font-size="14.00"> &#160;&#160;&#160;&#160;origins(tokenId: uint256): uint256[]</text>
<text text-anchor="start" x="1371.14" y="-392.9" font-family="Times,serif" font-size="14.00"> &#160;&#160;&#160;&#160;setOriginToken(originToken: address)</text>
<text text-anchor="start" x="1371.14" y="-376.1" font-family="Times,serif" font-size="14.00"> &#160;&#160;&#160;&#160;setProtocol(protocol: address)</text>
</g>
<!-- 0&#45;&gt;9 -->
<g id="edge2" class="edge">
<title>0&#45;&gt;9</title>
<path fill="none" stroke="black" stroke-dasharray="5,2" d="M1528.24,-293.44C1528.24,-308.24 1528.24,-323.12 1528.24,-337.51"/>
<polygon fill="none" stroke="black" points="1517.74,-337.52 1528.24,-367.52 1538.74,-337.52 1517.74,-337.52"/>
</g>
<!-- 1 -->
<g id="node2" class="node">
<title>1</title>
<polygon fill="#f2f2f2" stroke="black" points="1259.12,-1241.9 1259.12,-1585.1 1601.37,-1585.1 1601.37,-1241.9 1259.12,-1241.9"/>
<text text-anchor="middle" x="1430.24" y="-1568.5" font-family="Times,serif" font-size="14.00">Market</text>
<text text-anchor="middle" x="1430.24" y="-1551.7" font-family="Times,serif" font-size="14.00">contracts/Market.sol</text>
<polyline fill="none" stroke="black" points="1259.12,-1543.5 1601.37,-1543.5 "/>
<text text-anchor="start" x="1267.12" y="-1526.9" font-family="Times,serif" font-size="14.00">Private:</text>
<text text-anchor="start" x="1267.12" y="-1510.1" font-family="Times,serif" font-size="14.00"> &#160;&#160;_saleIds: Counters.Counter</text>
<text text-anchor="start" x="1267.12" y="-1493.3" font-family="Times,serif" font-size="14.00"> &#160;&#160;_fanficToken: address</text>
<text text-anchor="start" x="1267.12" y="-1476.5" font-family="Times,serif" font-size="14.00"> &#160;&#160;_protocol: address</text>
<text text-anchor="start" x="1267.12" y="-1459.7" font-family="Times,serif" font-size="14.00"> &#160;&#160;_sales: mapping(uint256=&gt;Sale)</text>
<polyline fill="none" stroke="black" points="1259.12,-1451.5 1601.37,-1451.5 "/>
<text text-anchor="start" x="1267.12" y="-1434.9" font-family="Times,serif" font-size="14.00">Internal:</text>
<text text-anchor="start" x="1267.12" y="-1418.1" font-family="Times,serif" font-size="14.00"> &#160;&#160;&#160;_currentSale(tokenId: uint256): Sale</text>
<text text-anchor="start" x="1267.12" y="-1401.3" font-family="Times,serif" font-size="14.00">External:</text>
<text text-anchor="start" x="1267.12" y="-1384.5" font-family="Times,serif" font-size="14.00"> &#160;&#160;&#160;&lt;&lt;payable&gt;&gt; purchase(saleId: uint256)</text>
<text text-anchor="start" x="1267.12" y="-1367.7" font-family="Times,serif" font-size="14.00"> &#160;&#160;&#160;startSale(tokenId: uint256, price: uint256): uint256</text>
<text text-anchor="start" x="1267.12" y="-1350.9" font-family="Times,serif" font-size="14.00"> &#160;&#160;&#160;closeSale(saleId: uint256)</text>
<text text-anchor="start" x="1267.12" y="-1334.1" font-family="Times,serif" font-size="14.00"> &#160;&#160;&#160;setFanficToken(fanficToken: address) &lt;&lt;onlyOwner&gt;&gt;</text>
<text text-anchor="start" x="1267.12" y="-1317.3" font-family="Times,serif" font-size="14.00"> &#160;&#160;&#160;setProtocol(protocol: address) &lt;&lt;onlyOwner&gt;&gt;</text>
<text text-anchor="start" x="1267.12" y="-1300.5" font-family="Times,serif" font-size="14.00"> &#160;&#160;&#160;totalSupply(): uint256</text>
<text text-anchor="start" x="1267.12" y="-1283.7" font-family="Times,serif" font-size="14.00"> &#160;&#160;&#160;sale(saleId: uint256): Sale</text>
<text text-anchor="start" x="1267.12" y="-1266.9" font-family="Times,serif" font-size="14.00">Public:</text>
<text text-anchor="start" x="1267.12" y="-1250.1" font-family="Times,serif" font-size="14.00"> &#160;&#160;&#160;constructor(owner: address)</text>
</g>
<!-- 1&#45;&gt;0 -->
<g id="edge8" class="edge">
<title>1&#45;&gt;0</title>
<path fill="none" stroke="black" stroke-dasharray="5,2" d="M1400.23,-1241.66C1357.15,-979.29 1289.71,-490.63 1354.24,-329.8 1358.07,-320.27 1362.65,-310.96 1367.83,-301.91"/>
<polygon fill="black" stroke="black" points="1370.85,-303.69 1372.97,-293.31 1364.84,-300.1 1370.85,-303.69"/>
</g>
<!-- 11 -->
<g id="node12" class="node">
<title>11</title>
<polygon fill="#f2f2f2" stroke="black" points="1428.42,-1994.3 1428.42,-2161.5 1622.07,-2161.5 1622.07,-1994.3 1428.42,-1994.3"/>
<text text-anchor="middle" x="1525.24" y="-2144.9" font-family="Times,serif" font-size="14.00">&lt;&lt;Struct&gt;&gt;</text>
<text text-anchor="middle" x="1525.24" y="-2128.1" font-family="Times,serif" font-size="14.00">Sale</text>
<text text-anchor="middle" x="1525.24" y="-2111.3" font-family="Times,serif" font-size="14.00">contracts/interfaces/IMarket.sol</text>
<polyline fill="none" stroke="black" points="1428.42,-2103.1 1622.07,-2103.1 "/>
<text text-anchor="start" x="1436.42" y="-2086.5" font-family="Times,serif" font-size="14.00">tokenId: uint256</text>
<text text-anchor="start" x="1436.42" y="-2069.7" font-family="Times,serif" font-size="14.00">price: uint256</text>
<text text-anchor="start" x="1436.42" y="-2052.9" font-family="Times,serif" font-size="14.00">buyer: address</text>
<text text-anchor="start" x="1436.42" y="-2036.1" font-family="Times,serif" font-size="14.00">startBlockNumber: uint256</text>
<text text-anchor="start" x="1436.42" y="-2019.3" font-family="Times,serif" font-size="14.00">endBlockNumber: uint256</text>
<text text-anchor="start" x="1436.42" y="-2002.5" font-family="Times,serif" font-size="14.00">isSold: bool</text>
</g>
<!-- 1&#45;&gt;11 -->
<g id="edge7" class="edge">
<title>1&#45;&gt;11</title>
<path fill="none" stroke="black" d="M1276.51,-1585.21C1270.19,-1597.06 1264.67,-1609.23 1260.24,-1621.6 1235.07,-1691.94 1219.66,-1895.07 1260.24,-1957.8 1295.21,-2011.85 1361.17,-2041.61 1418.53,-2057.86"/>
<polygon fill="black" stroke="black" points="1417.82,-2061.3 1428.39,-2060.55 1419.66,-2054.54 1417.82,-2061.3"/>
</g>
<!-- 10 -->
<g id="node13" class="node">
<title>10</title>
<polygon fill="#f2f2f2" stroke="black" points="1269.15,-1655.7 1269.15,-1923.7 1781.34,-1923.7 1781.34,-1655.7 1269.15,-1655.7"/>
<text text-anchor="middle" x="1525.24" y="-1907.1" font-family="Times,serif" font-size="14.00">&lt;&lt;Interface&gt;&gt;</text>
<text text-anchor="middle" x="1525.24" y="-1890.3" font-family="Times,serif" font-size="14.00">IMarket</text>
<text text-anchor="middle" x="1525.24" y="-1873.5" font-family="Times,serif" font-size="14.00">contracts/interfaces/IMarket.sol</text>
<polyline fill="none" stroke="black" points="1269.15,-1865.3 1781.34,-1865.3 "/>
<text text-anchor="start" x="1277.15" y="-1848.7" font-family="Times,serif" font-size="14.00">External:</text>
<text text-anchor="start" x="1277.15" y="-1831.9" font-family="Times,serif" font-size="14.00"> &#160;&#160;&#160;&#160;startSale(tokenId: uint256, price: uint256): uint256</text>
<text text-anchor="start" x="1277.15" y="-1815.1" font-family="Times,serif" font-size="14.00"> &#160;&#160;&#160;&#160;closeSale(saleId: uint256)</text>
<text text-anchor="start" x="1277.15" y="-1798.3" font-family="Times,serif" font-size="14.00"> &#160;&#160;&#160;&#160;purchase(saleId: uint256)</text>
<text text-anchor="start" x="1277.15" y="-1781.5" font-family="Times,serif" font-size="14.00"> &#160;&#160;&#160;&#160;totalSupply(): uint256</text>
<text text-anchor="start" x="1277.15" y="-1764.7" font-family="Times,serif" font-size="14.00"> &#160;&#160;&#160;&#160;setFanficToken(fanficToken: address)</text>
<text text-anchor="start" x="1277.15" y="-1747.9" font-family="Times,serif" font-size="14.00"> &#160;&#160;&#160;&#160;setProtocol(protocol: address)</text>
<text text-anchor="start" x="1277.15" y="-1731.1" font-family="Times,serif" font-size="14.00"> &#160;&#160;&#160;&#160;sale(saleId: uint256): Sale</text>
<text text-anchor="start" x="1277.15" y="-1714.3" font-family="Times,serif" font-size="14.00">Public:</text>
<text text-anchor="start" x="1277.15" y="-1697.5" font-family="Times,serif" font-size="14.00"> &#160;&#160;&#160;&lt;&lt;event&gt;&gt; StartSale(saleId: uint256, tokenId: uint256, price: uint256, seller: address)</text>
<text text-anchor="start" x="1277.15" y="-1680.7" font-family="Times,serif" font-size="14.00"> &#160;&#160;&#160;&lt;&lt;event&gt;&gt; CloseSale(saleId: uint256, tokenId: uint256)</text>
<text text-anchor="start" x="1277.15" y="-1663.9" font-family="Times,serif" font-size="14.00"> &#160;&#160;&#160;&lt;&lt;event&gt;&gt; Purchase(saleId: uint256, tokenId: uint256, price: uint256, buyer: address)</text>
</g>
<!-- 1&#45;&gt;10 -->
<g id="edge6" class="edge">
<title>1&#45;&gt;10</title>
<path fill="none" stroke="black" stroke-dasharray="5,2" d="M1473.57,-1585.17C1477.06,-1598.92 1480.58,-1612.78 1484.06,-1626.46"/>
<polygon fill="none" stroke="black" points="1473.88,-1629.05 1491.44,-1655.55 1494.24,-1623.89 1473.88,-1629.05"/>
</g>
<!-- 2 -->
<g id="node3" class="node">
<title>2</title>
<polygon fill="#f2f2f2" stroke="black" points="0,-1355.1 0,-1471.9 322.49,-1471.9 322.49,-1355.1 0,-1355.1"/>
<text text-anchor="middle" x="161.24" y="-1455.3" font-family="Times,serif" font-size="14.00">MteToken</text>
<text text-anchor="middle" x="161.24" y="-1438.5" font-family="Times,serif" font-size="14.00">contracts/MteToken.sol</text>
<polyline fill="none" stroke="black" points="0,-1430.3 322.49,-1430.3 "/>
<text text-anchor="start" x="8" y="-1413.7" font-family="Times,serif" font-size="14.00">External:</text>
<text text-anchor="start" x="8" y="-1396.9" font-family="Times,serif" font-size="14.00"> &#160;&#160;&#160;mint(to: address, amount: uint256) &lt;&lt;onlyOwner&gt;&gt;</text>
<text text-anchor="start" x="8" y="-1380.1" font-family="Times,serif" font-size="14.00">Public:</text>
<text text-anchor="start" x="8" y="-1363.3" font-family="Times,serif" font-size="14.00"> &#160;&#160;&#160;constructor(owner: address)</text>
</g>
<!-- 12 -->
<g id="node14" class="node">
<title>12</title>
<polygon fill="#f2f2f2" stroke="black" points="47.28,-1739.7 47.28,-1839.7 275.21,-1839.7 275.21,-1739.7 47.28,-1739.7"/>
<text text-anchor="middle" x="161.24" y="-1823.1" font-family="Times,serif" font-size="14.00">&lt;&lt;Interface&gt;&gt;</text>
<text text-anchor="middle" x="161.24" y="-1806.3" font-family="Times,serif" font-size="14.00">IMteToken</text>
<text text-anchor="middle" x="161.24" y="-1789.5" font-family="Times,serif" font-size="14.00">contracts/interfaces/IMteToken.sol</text>
<polyline fill="none" stroke="black" points="47.28,-1781.3 275.21,-1781.3 "/>
<text text-anchor="start" x="55.28" y="-1764.7" font-family="Times,serif" font-size="14.00">External:</text>
<text text-anchor="start" x="55.28" y="-1747.9" font-family="Times,serif" font-size="14.00"> &#160;&#160;&#160;&#160;mint(to: address, amount: uint256)</text>
</g>
<!-- 2&#45;&gt;12 -->
<g id="edge9" class="edge">
<title>2&#45;&gt;12</title>
<path fill="none" stroke="black" stroke-dasharray="5,2" d="M161.24,-1472.15C161.24,-1535.71 161.24,-1638.35 161.24,-1709.45"/>
<polygon fill="none" stroke="black" points="150.74,-1709.64 161.24,-1739.64 171.74,-1709.64 150.74,-1709.64"/>
</g>
<!-- 3&#45;&gt;4 -->
<g id="edge11" class="edge">
<title>3&#45;&gt;4</title>
<path fill="none" stroke="black" stroke-dasharray="5,2" d="M661.18,-556.04C675.19,-570.56 690.14,-586.05 705.66,-602.12"/>
<polygon fill="black" stroke="black" points="703.36,-604.78 712.82,-609.55 708.4,-599.92 703.36,-604.78"/>
</g>
<!-- 13 -->
<g id="node15" class="node">
<title>13</title>
<polygon fill="#f2f2f2" stroke="black" points="448.48,-840.5 448.48,-974.1 674.01,-974.1 674.01,-840.5 448.48,-840.5"/>
<text text-anchor="middle" x="561.24" y="-957.5" font-family="Times,serif" font-size="14.00">&lt;&lt;Interface&gt;&gt;</text>
<text text-anchor="middle" x="561.24" y="-940.7" font-family="Times,serif" font-size="14.00">IOriginToken</text>
<text text-anchor="middle" x="561.24" y="-923.9" font-family="Times,serif" font-size="14.00">contracts/interfaces/IOriginToken.sol</text>
<polyline fill="none" stroke="black" points="448.48,-915.7 674.01,-915.7 "/>
<text text-anchor="start" x="456.48" y="-899.1" font-family="Times,serif" font-size="14.00">External:</text>
<text text-anchor="start" x="456.48" y="-882.3" font-family="Times,serif" font-size="14.00"> &#160;&#160;&#160;&#160;mint(tokenURI: string): uint256</text>
<text text-anchor="start" x="456.48" y="-865.5" font-family="Times,serif" font-size="14.00"> &#160;&#160;&#160;&#160;totalSupply(): uint256</text>
<text text-anchor="start" x="456.48" y="-848.7" font-family="Times,serif" font-size="14.00"> &#160;&#160;&#160;&#160;setProtocol(protocol: address)</text>
</g>
<!-- 3&#45;&gt;13 -->
<g id="edge10" class="edge">
<title>3&#45;&gt;13</title>
<path fill="none" stroke="black" stroke-dasharray="5,2" d="M561.24,-556.04C561.24,-632.49 561.24,-735.79 561.24,-810.37"/>
<polygon fill="none" stroke="black" points="550.74,-810.41 561.24,-840.41 571.74,-810.41 550.74,-810.41"/>
</g>
<!-- 4&#45;&gt;0 -->
<g id="edge17" class="edge">
<title>4&#45;&gt;0</title>
<path fill="none" stroke="black" stroke-dasharray="5,2" d="M1148.45,-609.56C1199.81,-515.74 1261.8,-414.51 1330.24,-329.8 1338.07,-320.11 1346.45,-310.51 1355.18,-301.08"/>
<polygon fill="black" stroke="black" points="1357.95,-303.24 1362.25,-293.56 1352.85,-298.45 1357.95,-303.24"/>
</g>
<!-- 4&#45;&gt;1 -->
<g id="edge15" class="edge">
<title>4&#45;&gt;1</title>
<path fill="none" stroke="black" stroke-dasharray="5,2" d="M1253.07,-1205.24C1261.44,-1215.02 1269.72,-1224.71 1277.87,-1234.25"/>
<polygon fill="black" stroke="black" points="1275.22,-1236.54 1284.38,-1241.86 1280.54,-1231.99 1275.22,-1236.54"/>
</g>
<!-- 4&#45;&gt;2 -->
<g id="edge14" class="edge">
<title>4&#45;&gt;2</title>
<path fill="none" stroke="black" stroke-dasharray="5,2" d="M691.44,-1201.55C688.72,-1202.86 685.98,-1204.15 683.24,-1205.4 540.6,-1270.54 473.86,-1174.05 332.24,-1241.4 282.5,-1265.06 238.84,-1309.39 208.08,-1347"/>
<polygon fill="black" stroke="black" points="205.26,-1344.93 201.72,-1354.92 210.71,-1349.32 205.26,-1344.93"/>
</g>
<!-- 5 -->
<g id="node6" class="node">
<title>5</title>
<polygon fill="#f2f2f2" stroke="black" points="340.75,-1317.5 340.75,-1509.5 715.74,-1509.5 715.74,-1317.5 340.75,-1317.5"/>
<text text-anchor="middle" x="528.24" y="-1492.9" font-family="Times,serif" font-size="14.00">StakingToken</text>
<text text-anchor="middle" x="528.24" y="-1476.1" font-family="Times,serif" font-size="14.00">contracts/StakingToken.sol</text>
<polyline fill="none" stroke="black" points="340.75,-1467.9 715.74,-1467.9 "/>
<text text-anchor="start" x="348.75" y="-1451.3" font-family="Times,serif" font-size="14.00">Private:</text>
<text text-anchor="start" x="348.75" y="-1434.5" font-family="Times,serif" font-size="14.00"> &#160;&#160;_tokenIds: Counters.Counter</text>
<polyline fill="none" stroke="black" points="340.75,-1426.3 715.74,-1426.3 "/>
<text text-anchor="start" x="348.75" y="-1409.7" font-family="Times,serif" font-size="14.00">External:</text>
<text text-anchor="start" x="348.75" y="-1392.9" font-family="Times,serif" font-size="14.00"> &#160;&#160;&#160;mint(to: address, tokenURI: string): uint256 &lt;&lt;onlyOwner&gt;&gt;</text>
<text text-anchor="start" x="348.75" y="-1376.1" font-family="Times,serif" font-size="14.00"> &#160;&#160;&#160;burn(tokenId: uint256) &lt;&lt;onlyOwner&gt;&gt;</text>
<text text-anchor="start" x="348.75" y="-1359.3" font-family="Times,serif" font-size="14.00"> &#160;&#160;&#160;totalSupply(): uint256</text>
<text text-anchor="start" x="348.75" y="-1342.5" font-family="Times,serif" font-size="14.00">Public:</text>
<text text-anchor="start" x="348.75" y="-1325.7" font-family="Times,serif" font-size="14.00"> &#160;&#160;&#160;constructor(owner: address)</text>
</g>
<!-- 4&#45;&gt;5 -->
<g id="edge18" class="edge">
<title>4&#45;&gt;5</title>
<path fill="none" stroke="black" stroke-dasharray="5,2" d="M721.86,-1205.24C686.91,-1242.65 653.24,-1278.69 624.05,-1309.94"/>
<polygon fill="black" stroke="black" points="621.39,-1307.66 617.12,-1317.36 626.51,-1312.44 621.39,-1307.66"/>
</g>
<!-- 4&#45;&gt;11 -->
<g id="edge16" class="edge">
<title>4&#45;&gt;11</title>
<path fill="none" stroke="black" stroke-dasharray="5,2" d="M775.68,-1205.14C770.64,-1217.13 766.13,-1229.23 762.24,-1241.4 738.02,-1317.23 710.48,-1897.33 762.24,-1957.8 845.39,-2054.93 1228.21,-2073.44 1417.99,-2076.56"/>
<polygon fill="black" stroke="black" points="1418.21,-2080.07 1428.26,-2076.72 1418.32,-2073.07 1418.21,-2080.07"/>
</g>
<!-- 15 -->
<g id="node16" class="node">
<title>15</title>
<polygon fill="#f2f2f2" stroke="black" points="770.92,-1338.3 770.92,-1488.7 971.57,-1488.7 971.57,-1338.3 770.92,-1338.3"/>
<text text-anchor="middle" x="871.24" y="-1472.1" font-family="Times,serif" font-size="14.00">&lt;&lt;Struct&gt;&gt;</text>
<text text-anchor="middle" x="871.24" y="-1455.3" font-family="Times,serif" font-size="14.00">Staking</text>
<text text-anchor="middle" x="871.24" y="-1438.5" font-family="Times,serif" font-size="14.00">contracts/interfaces/IProtocol.sol</text>
<polyline fill="none" stroke="black" points="770.92,-1430.3 971.57,-1430.3 "/>
<text text-anchor="start" x="778.92" y="-1413.7" font-family="Times,serif" font-size="14.00">staker: address</text>
<text text-anchor="start" x="778.92" y="-1396.9" font-family="Times,serif" font-size="14.00">startBlockNumber: uint256</text>
<text text-anchor="start" x="778.92" y="-1380.1" font-family="Times,serif" font-size="14.00">endBlockNumber: uint256</text>
<text text-anchor="start" x="778.92" y="-1363.3" font-family="Times,serif" font-size="14.00">value: uint256</text>
<text text-anchor="start" x="778.92" y="-1346.5" font-family="Times,serif" font-size="14.00">stakingTokenId: uint256</text>
</g>
<!-- 4&#45;&gt;15 -->
<g id="edge13" class="edge">
<title>4&#45;&gt;15</title>
<path fill="none" stroke="black" d="M923.86,-1205.24C912.5,-1249.99 901.63,-1292.8 892.76,-1327.76"/>
<polygon fill="black" stroke="black" points="889.26,-1327.33 890.19,-1337.89 896.04,-1329.05 889.26,-1327.33"/>
</g>
<!-- 14 -->
<g id="node17" class="node">
<title>14</title>
<polygon fill="#f2f2f2" stroke="black" points="771.15,-1622.1 771.15,-1957.3 1213.33,-1957.3 1213.33,-1622.1 771.15,-1622.1"/>
<text text-anchor="middle" x="992.24" y="-1940.7" font-family="Times,serif" font-size="14.00">&lt;&lt;Interface&gt;&gt;</text>
<text text-anchor="middle" x="992.24" y="-1923.9" font-family="Times,serif" font-size="14.00">IProtocol</text>
<text text-anchor="middle" x="992.24" y="-1907.1" font-family="Times,serif" font-size="14.00">contracts/interfaces/IProtocol.sol</text>
<polyline fill="none" stroke="black" points="771.15,-1898.9 1213.33,-1898.9 "/>
<text text-anchor="start" x="779.15" y="-1882.3" font-family="Times,serif" font-size="14.00">External:</text>
<text text-anchor="start" x="779.15" y="-1865.5" font-family="Times,serif" font-size="14.00"> &#160;&#160;&#160;&#160;stake(amount: uint256)</text>
<text text-anchor="start" x="779.15" y="-1848.7" font-family="Times,serif" font-size="14.00"> &#160;&#160;&#160;&#160;stakeSales(saleId: uint256)</text>
<text text-anchor="start" x="779.15" y="-1831.9" font-family="Times,serif" font-size="14.00"> &#160;&#160;&#160;&#160;withdraw(amount: uint256)</text>
<text text-anchor="start" x="779.15" y="-1815.1" font-family="Times,serif" font-size="14.00"> &#160;&#160;&#160;&#160;balanceOfStaking(account: address): uint256</text>
<text text-anchor="start" x="779.15" y="-1798.3" font-family="Times,serif" font-size="14.00"> &#160;&#160;&#160;&#160;balanceOfReward(account: address): uint256</text>
<text text-anchor="start" x="779.15" y="-1781.5" font-family="Times,serif" font-size="14.00"> &#160;&#160;&#160;&#160;totalStaking(): uint256</text>
<text text-anchor="start" x="779.15" y="-1764.7" font-family="Times,serif" font-size="14.00"> &#160;&#160;&#160;&#160;mintable(account: address): bool</text>
<text text-anchor="start" x="779.15" y="-1747.9" font-family="Times,serif" font-size="14.00"> &#160;&#160;&#160;&#160;provideLiquidity(to: address, ethAmount: uint256, mteAmount: uint256)</text>
<text text-anchor="start" x="779.15" y="-1731.1" font-family="Times,serif" font-size="14.00"> &#160;&#160;&#160;&#160;rateOfLiquidity(): uint256</text>
<text text-anchor="start" x="779.15" y="-1714.3" font-family="Times,serif" font-size="14.00"> &#160;&#160;&#160;&#160;setMteToken(mteToken: address)</text>
<text text-anchor="start" x="779.15" y="-1697.5" font-family="Times,serif" font-size="14.00"> &#160;&#160;&#160;&#160;setStakingToken(stakingToken: address)</text>
<text text-anchor="start" x="779.15" y="-1680.7" font-family="Times,serif" font-size="14.00"> &#160;&#160;&#160;&#160;setFanficToken(fanficToken: address)</text>
<text text-anchor="start" x="779.15" y="-1663.9" font-family="Times,serif" font-size="14.00"> &#160;&#160;&#160;&#160;setMarket(market: address)</text>
<text text-anchor="start" x="779.15" y="-1647.1" font-family="Times,serif" font-size="14.00">Public:</text>
<text text-anchor="start" x="779.15" y="-1630.3" font-family="Times,serif" font-size="14.00"> &#160;&#160;&#160;&lt;&lt;event&gt;&gt; Stake(staker: address, from: address, amounts: uint256)</text>
</g>
<!-- 4&#45;&gt;14 -->
<g id="edge12" class="edge">
<title>4&#45;&gt;14</title>
<path fill="none" stroke="black" stroke-dasharray="5,2" d="M996.88,-1205.14C995.87,-1332.62 994.71,-1478.12 993.81,-1591.94"/>
<polygon fill="none" stroke="black" points="983.31,-1591.95 993.57,-1622.03 1004.31,-1592.12 983.31,-1591.95"/>
</g>
<!-- 16 -->
<g id="node18" class="node">
<title>16</title>
<polygon fill="#f2f2f2" stroke="black" points="388.03,-1722.9 388.03,-1856.5 668.46,-1856.5 668.46,-1722.9 388.03,-1722.9"/>
<text text-anchor="middle" x="528.24" y="-1839.9" font-family="Times,serif" font-size="14.00">&lt;&lt;Interface&gt;&gt;</text>
<text text-anchor="middle" x="528.24" y="-1823.1" font-family="Times,serif" font-size="14.00">IStakingToken</text>
<text text-anchor="middle" x="528.24" y="-1806.3" font-family="Times,serif" font-size="14.00">contracts/interfaces/IStakingToken.sol</text>
<polyline fill="none" stroke="black" points="388.03,-1798.1 668.46,-1798.1 "/>
<text text-anchor="start" x="396.03" y="-1781.5" font-family="Times,serif" font-size="14.00">External:</text>
<text text-anchor="start" x="396.03" y="-1764.7" font-family="Times,serif" font-size="14.00"> &#160;&#160;&#160;&#160;mint(to: address, tokenURI: string): uint256</text>
<text text-anchor="start" x="396.03" y="-1747.9" font-family="Times,serif" font-size="14.00"> &#160;&#160;&#160;&#160;burn(tokenId: uint256)</text>
<text text-anchor="start" x="396.03" y="-1731.1" font-family="Times,serif" font-size="14.00"> &#160;&#160;&#160;&#160;totalSupply(): uint256</text>
</g>
<!-- 5&#45;&gt;16 -->
<g id="edge19" class="edge">
<title>5&#45;&gt;16</title>
<path fill="none" stroke="black" stroke-dasharray="5,2" d="M528.24,-1509.89C528.24,-1565.82 528.24,-1636.26 528.24,-1692.34"/>
<polygon fill="none" stroke="black" points="517.74,-1692.66 528.24,-1722.66 538.74,-1692.66 517.74,-1692.66"/>
</g>
<!-- 7 -->
<g id="node7" class="node">
<title>7</title>
<polygon fill="#f2f2f2" stroke="black" points="2034.46,-857.3 2034.46,-957.3 2330.03,-957.3 2330.03,-857.3 2034.46,-857.3"/>
<text text-anchor="middle" x="2182.24" y="-940.7" font-family="Times,serif" font-size="14.00">&lt;&lt;Struct&gt;&gt;</text>
<text text-anchor="middle" x="2182.24" y="-923.9" font-family="Times,serif" font-size="14.00">RoyaltyInfo</text>
<text text-anchor="middle" x="2182.24" y="-907.1" font-family="Times,serif" font-size="14.00">contracts/erc2981/ERC2981MultipleRoyalties.sol</text>
<polyline fill="none" stroke="black" points="2034.46,-898.9 2330.03,-898.9 "/>
<text text-anchor="start" x="2042.46" y="-882.3" font-family="Times,serif" font-size="14.00">receiver: address</text>
<text text-anchor="start" x="2042.46" y="-865.5" font-family="Times,serif" font-size="14.00">royaltyFraction: uint16</text>
</g>
<!-- 7&#45;&gt;6 -->
<g id="edge20" class="edge">
<title>7&#45;&gt;6</title>
<path fill="none" stroke="black" d="M2164.46,-857.21C2137.48,-792.3 2085.29,-675.46 2042.81,-583.95"/>
<polygon fill="black" stroke="black" points="2042.74,-583.8 2036.59,-580.05 2037.68,-572.92 2043.84,-576.67 2042.74,-583.8"/>
</g>
<!-- 6&#45;&gt;7 -->
<g id="edge22" class="edge">
<title>6&#45;&gt;7</title>
<path fill="none" stroke="black" stroke-dasharray="5,2" d="M2025.6,-572.92C2064.51,-661.88 2117.9,-779.08 2151.3,-848.19"/>
<polygon fill="black" stroke="black" points="2148.16,-849.74 2155.68,-857.21 2154.46,-846.68 2148.16,-849.74"/>
</g>
<!-- 6&#45;&gt;8 -->
<g id="edge21" class="edge">
<title>6&#45;&gt;8</title>
<path fill="none" stroke="black" stroke-dasharray="5,2" d="M1909.31,-572.92C1868.41,-645.43 1816.92,-736.7 1778.16,-805.41"/>
<polygon fill="none" stroke="black" points="1768.79,-800.66 1763.19,-831.94 1787.08,-810.97 1768.79,-800.66"/>
</g>
<!-- 17 -->
<g id="node10" class="node">
<title>17</title>
<polygon fill="#f2f2f2" stroke="black" points="1752.51,-88.5 1752.51,-205.3 2201.98,-205.3 2201.98,-88.5 1752.51,-88.5"/>
<text text-anchor="middle" x="1977.24" y="-188.7" font-family="Times,serif" font-size="14.00">ERC2981Mock</text>
<text text-anchor="middle" x="1977.24" y="-171.9" font-family="Times,serif" font-size="14.00">contracts/erc2981/mock/ERC2981Mock.sol</text>
<polyline fill="none" stroke="black" points="1752.51,-163.7 2201.98,-163.7 "/>
<text text-anchor="start" x="1760.51" y="-147.1" font-family="Times,serif" font-size="14.00">External:</text>
<text text-anchor="start" x="1760.51" y="-130.3" font-family="Times,serif" font-size="14.00"> &#160;&#160;&#160;addRoyaltyInfo(tokenId: uint256, receiver: address, feeNumerator: uint16)</text>
<text text-anchor="start" x="1760.51" y="-113.5" font-family="Times,serif" font-size="14.00"> &#160;&#160;&#160;resetTokenRoyalty(tokenId: uint256)</text>
<text text-anchor="start" x="1760.51" y="-96.7" font-family="Times,serif" font-size="14.00"> &#160;&#160;&#160;feeDenominator(): uint16</text>
</g>
<!-- 17&#45;&gt;6 -->
<g id="edge23" class="edge">
<title>17&#45;&gt;6</title>
<path fill="none" stroke="black" d="M1977.24,-205.53C1977.24,-232.65 1977.24,-266.38 1977.24,-300.06"/>
<polygon fill="none" stroke="black" points="1966.74,-300.13 1977.24,-330.13 1987.74,-300.13 1966.74,-300.13"/>
</g>
<!-- 11&#45;&gt;10 -->
<g id="edge24" class="edge">
<title>11&#45;&gt;10</title>
<path fill="none" stroke="black" d="M1531.43,-1994C1531.8,-1975.7 1531.98,-1955.79 1531.99,-1935.83"/>
<polygon fill="black" stroke="black" points="1531.99,-1935.75 1527.99,-1929.75 1531.98,-1923.75 1535.99,-1929.74 1531.99,-1935.75"/>
</g>
<!-- 10&#45;&gt;11 -->
<g id="edge25" class="edge">
<title>10&#45;&gt;11</title>
<path fill="none" stroke="black" stroke-dasharray="5,2" d="M1518.51,-1923.75C1518.45,-1944.04 1518.57,-1964.6 1518.87,-1983.79"/>
<polygon fill="black" stroke="black" points="1515.38,-1984.06 1519.06,-1994 1522.38,-1983.94 1515.38,-1984.06"/>
</g>
<!-- 15&#45;&gt;14 -->
<g id="edge26" class="edge">
<title>15&#45;&gt;14</title>
<path fill="none" stroke="black" d="M895.3,-1488.88C906.65,-1524 920.74,-1567.57 934.62,-1610.51"/>
<polygon fill="black" stroke="black" points="934.65,-1610.58 940.3,-1615.06 938.34,-1622 932.69,-1617.52 934.65,-1610.58"/>
</g>
</g>
</svg>
